# Blender 4.3.2
# www.blender.org
mtllib craft2.mtl
o Cylinder
v 0.692100 -4.000000 -0.721801
v 0.692100 4.000000 -0.721801
v 0.749210 -4.000000 -0.640421
v 0.749210 4.000000 -0.640421
v 0.777528 -4.000000 -0.534430
v 0.777528 4.000000 -0.534430
v 0.775966 -4.000000 -0.407901
v 0.775966 4.000000 -0.407901
v 0.744584 -4.000000 -0.265696
v 0.744584 4.000000 -0.265696
v 0.684588 -4.000000 -0.113281
v 0.684588 4.000000 -0.113281
v 0.598284 -4.000000 0.043487
v 0.598284 4.000000 0.043487
v 0.488988 -4.000000 0.198585
v 0.488988 4.000000 0.198585
v 0.360901 -4.000000 0.346050
v 0.360901 4.000000 0.346050
v 0.218944 -4.000000 0.480217
v 0.218944 4.000000 0.480217
v 0.068573 -4.000000 0.595930
v 0.068573 4.000000 0.595930
v -0.084433 -4.000000 0.688742
v -0.084433 4.000000 0.688742
v -0.234194 -4.000000 0.755085
v -0.234194 4.000000 0.755085
v -0.374955 -4.000000 0.792411
v -0.374955 4.000000 0.792411
v -0.501307 -4.000000 0.799285
v -0.501307 4.000000 0.799285
v -0.608394 -4.000000 0.775443
v -0.608394 4.000000 0.775443
v -0.692100 -4.000000 0.721801
v -0.692100 4.000000 0.721801
v -0.749210 -4.000000 0.640421
v -0.749210 4.000000 0.640421
v -0.777528 -4.000000 0.534430
v -0.777528 4.000000 0.534430
v -0.775966 -4.000000 0.407901
v -0.775966 4.000000 0.407901
v -0.744584 -4.000000 0.265696
v -0.744584 4.000000 0.265696
v -0.684588 -4.000000 0.113281
v -0.684588 4.000000 0.113281
v -0.598284 -4.000000 -0.043487
v -0.598284 4.000000 -0.043487
v -0.488988 -4.000000 -0.198585
v -0.488988 4.000000 -0.198585
v -0.360901 -4.000000 -0.346050
v -0.360901 4.000000 -0.346050
v -0.218944 -4.000000 -0.480217
v -0.218944 4.000000 -0.480217
v -0.068573 -4.000000 -0.595930
v -0.068573 4.000000 -0.595930
v 0.084433 -4.000000 -0.688742
v 0.084433 4.000000 -0.688742
v 0.234194 -4.000000 -0.755085
v 0.234194 4.000000 -0.755085
v 0.374955 -4.000000 -0.792411
v 0.374955 4.000000 -0.792411
v 0.501307 -4.000000 -0.799285
v 0.501307 4.000000 -0.799285
v 0.608394 -4.000000 -0.775443
v 0.608394 4.000000 -0.775443
vn 0.8186 -0.0000 -0.5744
vn 0.9661 -0.0000 -0.2581
vn 0.9999 -0.0000 0.0123
vn 0.9765 -0.0000 0.2155
vn 0.9305 -0.0000 0.3663
vn 0.8760 -0.0000 0.4823
vn 0.8174 -0.0000 0.5760
vn 0.7550 -0.0000 0.6558
vn 0.6869 -0.0000 0.7268
vn 0.6099 -0.0000 0.7925
vn 0.5186 -0.0000 0.8550
vn 0.4050 -0.0000 0.9143
vn 0.2563 -0.0000 0.9666
vn 0.0543 -0.0000 0.9985
vn -0.2173 -0.0000 0.9761
vn -0.5395 -0.0000 0.8420
vn -0.8186 -0.0000 0.5744
vn -0.9661 -0.0000 0.2581
vn -0.9999 -0.0000 -0.0123
vn -0.9765 -0.0000 -0.2155
vn -0.9305 -0.0000 -0.3663
vn -0.8760 -0.0000 -0.4823
vn -0.8174 -0.0000 -0.5760
vn -0.7550 -0.0000 -0.6558
vn -0.6869 -0.0000 -0.7268
vn -0.6099 -0.0000 -0.7925
vn -0.5186 -0.0000 -0.8550
vn -0.4050 -0.0000 -0.9143
vn -0.2563 -0.0000 -0.9666
vn -0.0543 -0.0000 -0.9985
vn -0.0000 1.0000 -0.0000
vn 0.2173 -0.0000 -0.9761
vn 0.5395 -0.0000 -0.8420
vn -0.0000 -1.0000 -0.0000
vt 1.000000 0.500000
vt 1.000000 1.000000
vt 0.968750 1.000000
vt 0.968750 0.500000
vt 0.937500 1.000000
vt 0.937500 0.500000
vt 0.906250 1.000000
vt 0.906250 0.500000
vt 0.875000 1.000000
vt 0.875000 0.500000
vt 0.843750 1.000000
vt 0.843750 0.500000
vt 0.812500 1.000000
vt 0.812500 0.500000
vt 0.781250 1.000000
vt 0.781250 0.500000
vt 0.750000 1.000000
vt 0.750000 0.500000
vt 0.718750 1.000000
vt 0.718750 0.500000
vt 0.687500 1.000000
vt 0.687500 0.500000
vt 0.656250 1.000000
vt 0.656250 0.500000
vt 0.625000 1.000000
vt 0.625000 0.500000
vt 0.593750 1.000000
vt 0.593750 0.500000
vt 0.562500 1.000000
vt 0.562500 0.500000
vt 0.531250 1.000000
vt 0.531250 0.500000
vt 0.500000 1.000000
vt 0.500000 0.500000
vt 0.468750 1.000000
vt 0.468750 0.500000
vt 0.437500 1.000000
vt 0.437500 0.500000
vt 0.406250 1.000000
vt 0.406250 0.500000
vt 0.375000 1.000000
vt 0.375000 0.500000
vt 0.343750 1.000000
vt 0.343750 0.500000
vt 0.312500 1.000000
vt 0.312500 0.500000
vt 0.281250 1.000000
vt 0.281250 0.500000
vt 0.250000 1.000000
vt 0.250000 0.500000
vt 0.218750 1.000000
vt 0.218750 0.500000
vt 0.187500 1.000000
vt 0.187500 0.500000
vt 0.156250 1.000000
vt 0.156250 0.500000
vt 0.125000 1.000000
vt 0.125000 0.500000
vt 0.093750 1.000000
vt 0.093750 0.500000
vt 0.062500 1.000000
vt 0.062500 0.500000
vt 0.296822 0.485388
vt 0.250000 0.490000
vt 0.203178 0.485388
vt 0.158156 0.471731
vt 0.116663 0.449553
vt 0.080294 0.419706
vt 0.050447 0.383337
vt 0.028269 0.341844
vt 0.014612 0.296822
vt 0.010000 0.250000
vt 0.014612 0.203178
vt 0.028269 0.158156
vt 0.050447 0.116663
vt 0.080294 0.080294
vt 0.116663 0.050447
vt 0.158156 0.028269
vt 0.203178 0.014612
vt 0.250000 0.010000
vt 0.296822 0.014612
vt 0.341844 0.028269
vt 0.383337 0.050447
vt 0.419706 0.080294
vt 0.449553 0.116663
vt 0.471731 0.158156
vt 0.485388 0.203178
vt 0.490000 0.250000
vt 0.485388 0.296822
vt 0.471731 0.341844
vt 0.449553 0.383337
vt 0.419706 0.419706
vt 0.383337 0.449553
vt 0.341844 0.471731
vt 0.031250 1.000000
vt 0.031250 0.500000
vt 0.000000 1.000000
vt 0.000000 0.500000
vt 0.750000 0.490000
vt 0.796822 0.485388
vt 0.841844 0.471731
vt 0.883337 0.449553
vt 0.919706 0.419706
vt 0.949553 0.383337
vt 0.971731 0.341844
vt 0.985388 0.296822
vt 0.990000 0.250000
vt 0.985388 0.203178
vt 0.971731 0.158156
vt 0.949553 0.116663
vt 0.919706 0.080294
vt 0.883337 0.050447
vt 0.841844 0.028269
vt 0.796822 0.014612
vt 0.750000 0.010000
vt 0.703178 0.014612
vt 0.658156 0.028269
vt 0.616663 0.050447
vt 0.580294 0.080294
vt 0.550447 0.116663
vt 0.528269 0.158156
vt 0.514612 0.203178
vt 0.510000 0.250000
vt 0.514612 0.296822
vt 0.528269 0.341844
vt 0.550447 0.383337
vt 0.580294 0.419706
vt 0.616663 0.449553
vt 0.658156 0.471731
vt 0.703178 0.485388
s 0
usemtl Material1
f 1/1/1 2/2/1 4/3/1 3/4/1
f 3/4/2 4/3/2 6/5/2 5/6/2
f 5/6/3 6/5/3 8/7/3 7/8/3
f 7/8/4 8/7/4 10/9/4 9/10/4
f 9/10/5 10/9/5 12/11/5 11/12/5
f 11/12/6 12/11/6 14/13/6 13/14/6
f 13/14/7 14/13/7 16/15/7 15/16/7
f 15/16/8 16/15/8 18/17/8 17/18/8
f 17/18/9 18/17/9 20/19/9 19/20/9
f 19/20/10 20/19/10 22/21/10 21/22/10
f 21/22/11 22/21/11 24/23/11 23/24/11
f 23/24/12 24/23/12 26/25/12 25/26/12
f 25/26/13 26/25/13 28/27/13 27/28/13
f 27/28/14 28/27/14 30/29/14 29/30/14
f 29/30/15 30/29/15 32/31/15 31/32/15
f 31/32/16 32/31/16 34/33/16 33/34/16
f 33/34/17 34/33/17 36/35/17 35/36/17
f 35/36/18 36/35/18 38/37/18 37/38/18
f 37/38/19 38/37/19 40/39/19 39/40/19
f 39/40/20 40/39/20 42/41/20 41/42/20
f 41/42/21 42/41/21 44/43/21 43/44/21
f 43/44/22 44/43/22 46/45/22 45/46/22
f 45/46/23 46/45/23 48/47/23 47/48/23
f 47/48/24 48/47/24 50/49/24 49/50/24
f 49/50/25 50/49/25 52/51/25 51/52/25
f 51/52/26 52/51/26 54/53/26 53/54/26
f 53/54/27 54/53/27 56/55/27 55/56/27
f 55/56/28 56/55/28 58/57/28 57/58/28
f 57/58/29 58/57/29 60/59/29 59/60/29
f 59/60/30 60/59/30 62/61/30 61/62/30
f 4/63/31 2/64/31 64/65/31 62/66/31 60/67/31 58/68/31 56/69/31 54/70/31 52/71/31 50/72/31 48/73/31 46/74/31 44/75/31 42/76/31 40/77/31 38/78/31 36/79/31 34/80/31 32/81/31 30/82/31 28/83/31 26/84/31 24/85/31 22/86/31 20/87/31 18/88/31 16/89/31 14/90/31 12/91/31 10/92/31 8/93/31 6/94/31
f 61/62/32 62/61/32 64/95/32 63/96/32
f 63/96/33 64/95/33 2/97/33 1/98/33
f 1/99/34 3/100/34 5/101/34 7/102/34 9/103/34 11/104/34 13/105/34 15/106/34 17/107/34 19/108/34 21/109/34 23/110/34 25/111/34 27/112/34 29/113/34 31/114/34 33/115/34 35/116/34 37/117/34 39/118/34 41/119/34 43/120/34 45/121/34 47/122/34 49/123/34 51/124/34 53/125/34 55/126/34 57/127/34 59/128/34 61/129/34 63/130/34
o N
v 1.696803 3.366573 0.643400
v 1.370800 3.366573 0.771085
v 1.351198 1.357928 0.721036
v -0.266304 3.366573 1.412284
v -0.542698 3.366573 1.520538
v -0.568018 0.772074 1.455891
v -0.242015 0.772074 1.328207
v -0.222524 2.769306 1.377971
v 1.373829 0.772074 0.695335
v 1.671484 0.772074 0.578754
vn 0.3646 -0.0268 0.9308
vn 0.3646 -0.0267 0.9308
vt 0.555556 0.000000
vt 0.333333 0.000000
vt 0.444444 0.000000
vt 0.777778 0.000000
vt 0.222222 0.000000
vt 0.000000 0.000000
vt 0.111111 0.000000
vt 1.000000 0.000000
vt 0.666667 0.000000
vt 0.888889 0.000000
s 0
usemtl Material
f 70/131/35 68/132/35 69/133/35
f 70/131/35 72/134/35 68/132/35
f 72/134/35 67/135/35 68/132/35
f 67/135/35 65/136/35 66/137/35
f 67/135/35 74/138/35 65/136/35
f 70/131/35 71/139/35 72/134/35
f 73/140/36 67/135/36 72/134/36
f 73/140/36 74/138/36 67/135/36
o Cylinder.001
v 0.692826 -0.491859 -0.621295
v 0.228134 0.600000 -0.194820
v 0.726450 -0.491859 -0.573045
v 0.261758 0.600000 -0.146570
v 0.750015 -0.491859 -0.519162
v 0.285323 0.600000 -0.092687
v 0.762615 -0.491859 -0.461718
v 0.762615 0.708141 -0.461718
v 0.763766 -5.096354 -0.402919
v 0.763766 -3.896354 -0.402919
v 0.753424 -5.096354 -0.345025
v 0.753424 -3.896354 -0.345025
v 0.731986 -5.096354 -0.290261
v 0.731986 -3.896354 -0.290261
v 0.700276 -5.096354 -0.240732
v 0.700276 -3.896354 -0.240732
v 0.659512 -5.096354 -0.198341
v 0.659512 -3.896354 -0.198341
v 0.611262 -5.096354 -0.164717
v 0.611262 -3.896354 -0.164717
v 0.557380 -5.096354 -0.141152
v 0.557380 -3.896354 -0.141152
v 0.499935 -0.491859 -0.128552
v 0.499935 0.708141 -0.128552
v 0.441136 -0.491859 -0.127401
v -0.023556 0.600000 0.299074
v 0.383242 -0.491859 -0.137743
v -0.081450 0.600000 0.288732
v 0.328478 -0.491859 -0.159181
v -0.136214 0.600000 0.267294
v 0.278949 -0.491859 -0.190891
v -0.185743 0.600000 0.235584
v 0.236558 -0.491859 -0.231655
v -0.228134 0.600000 0.194820
v 0.202934 -0.491859 -0.279905
v -0.261758 0.600000 0.146570
v 0.179369 -0.491859 -0.333788
v -0.285323 0.600000 0.092687
v 0.166769 -0.491859 -0.391232
v -0.297923 0.600000 0.035243
v 0.165618 -0.491859 -0.450031
v -0.299074 0.600000 -0.023556
v 0.175961 -0.491859 -0.507925
v -0.288732 0.600000 -0.081450
v 0.197399 -0.491859 -0.562689
v -0.267294 0.600000 -0.136214
v 0.229109 -0.491859 -0.612218
v -0.235584 0.600000 -0.185743
v 0.269872 -0.491859 -0.654609
v -0.194820 0.600000 -0.228134
v 0.318122 -0.491859 -0.688233
v -0.146570 0.600000 -0.261758
v 0.372005 -0.491859 -0.711798
v -0.092687 0.600000 -0.285323
v 0.429449 -0.491859 -0.724398
v -0.035243 0.600000 -0.297923
v 0.488248 -0.491859 -0.725549
v 0.023556 0.600000 -0.299074
v 0.546142 -0.491859 -0.715207
v 0.081450 0.600000 -0.288732
v 0.600906 -0.491859 -0.693769
v 0.136214 0.600000 -0.267294
v 0.650435 -0.491859 -0.662059
v 0.185743 0.600000 -0.235584
v -0.524583 -0.526305 0.022838
v -0.490959 -0.526305 0.071089
v -0.467394 -0.526305 0.124971
v -0.454794 -0.526305 0.182416
v -0.453643 -5.130800 0.241215
v -0.448295 -4.340126 0.192301
v -0.463985 -5.130800 0.299109
v -0.458638 -4.340126 0.250194
v -0.485423 -5.130800 0.353872
v -0.485423 -3.930800 0.353872
v -0.517133 -5.130800 0.403401
v -0.517133 -3.930800 0.403401
v -0.557897 -5.130800 0.445793
v -0.557897 -3.930800 0.445793
v -0.606147 -5.130800 0.479417
v -0.606147 -3.930800 0.479417
v -0.660030 -5.130800 0.502981
v -0.660030 -3.930800 0.502981
v -0.717474 -0.526305 0.515582
v -0.776273 -0.526305 0.516733
v -0.834167 -0.526305 0.506390
v -0.888931 -0.526305 0.484952
v -0.938460 -0.526305 0.453242
v -0.980851 -0.526305 0.412479
v -1.014475 -0.526305 0.364229
v -1.038040 -0.526305 0.310346
v -1.050640 -0.526305 0.252902
v -1.051791 -0.526305 0.194103
v -1.041449 -0.526305 0.136209
v -1.020010 -0.526305 0.081445
v -0.988301 -0.526305 0.031916
v -0.947537 -0.526305 -0.010475
v -0.899287 -0.526305 -0.044099
v -0.845404 -0.526305 -0.067664
v -0.787960 -0.526305 -0.080264
v -0.729161 -0.526305 -0.081415
v -0.671267 -0.526305 -0.071073
v -0.616503 -0.526305 -0.049635
v -0.566974 -0.526305 -0.017925
vn 0.7120 0.4968 -0.4962
vn 0.8040 0.4795 -0.3516
vn -0.5433 0.0458 -0.8383
vn 0.9998 -0.0000 -0.0196
vn 0.9844 -0.0000 0.1759
vn 0.9312 -0.0000 0.3645
vn 0.8422 -0.0000 0.5392
vn 0.7208 -0.0000 0.6931
vn 0.5717 -0.0000 0.8204
vn 0.4007 -0.0000 0.9162
vn 0.2142 -0.0000 0.9768
vn 0.5961 -0.0284 0.8024
vn -0.1598 -0.4174 0.8946
vn -0.3236 -0.4606 0.8266
vn -0.4708 -0.4876 0.7353
vn -0.6005 -0.4995 0.6245
vn -0.7120 -0.4968 0.4962
vn -0.8040 -0.4795 0.3516
vn -0.8739 -0.4468 0.1917
vn -0.9174 -0.3975 0.0180
vn -0.9291 -0.3306 -0.1660
vn -0.9025 -0.2461 -0.3533
vn -0.8331 -0.1462 -0.5334
vn -0.7203 -0.0360 -0.6927
vn -0.5700 0.0769 -0.8180
vn -0.3938 0.1841 -0.9005
vn -0.2058 0.2788 -0.9380
vn -0.0183 0.3570 -0.9339
vn 0.1598 0.4174 -0.8946
vn 0.3236 0.4606 -0.8266
vn 0.7710 0.1898 0.6079
vn 0.4708 0.4876 -0.7353
vn 0.6005 0.4995 -0.6245
vn -0.7753 -0.1590 -0.6113
vn 0.9844 0.0042 0.1759
vn 0.9597 0.0043 0.2809
vt 1.000000 0.500000
vt 1.000000 1.000000
vt 0.968750 1.000000
vt 0.968750 0.500000
vt 0.937500 1.000000
vt 0.937500 0.500000
vt 0.906250 1.000000
vt 0.906250 0.500000
vt 0.875000 1.000000
vt 0.875000 0.500000
vt 0.843750 1.000000
vt 0.843750 0.500000
vt 0.812500 1.000000
vt 0.812500 0.500000
vt 0.781250 1.000000
vt 0.781250 0.500000
vt 0.750000 1.000000
vt 0.750000 0.500000
vt 0.718750 1.000000
vt 0.718750 0.500000
vt 0.687500 1.000000
vt 0.687500 0.500000
vt 0.656250 1.000000
vt 0.656250 0.500000
vt 0.625000 1.000000
vt 0.625000 0.500000
vt 0.593750 1.000000
vt 0.593750 0.500000
vt 0.562500 1.000000
vt 0.562500 0.500000
vt 0.531250 1.000000
vt 0.531250 0.500000
vt 0.500000 1.000000
vt 0.500000 0.500000
vt 0.468750 1.000000
vt 0.468750 0.500000
vt 0.437500 1.000000
vt 0.437500 0.500000
vt 0.406250 1.000000
vt 0.406250 0.500000
vt 0.375000 1.000000
vt 0.375000 0.500000
vt 0.343750 1.000000
vt 0.343750 0.500000
vt 0.312500 1.000000
vt 0.312500 0.500000
vt 0.281250 1.000000
vt 0.281250 0.500000
vt 0.250000 1.000000
vt 0.250000 0.500000
vt 0.218750 1.000000
vt 0.218750 0.500000
vt 0.187500 1.000000
vt 0.187500 0.500000
vt 0.156250 1.000000
vt 0.156250 0.500000
vt 0.125000 1.000000
vt 0.125000 0.500000
vt 0.093750 1.000000
vt 0.093750 0.500000
vt 0.062500 1.000000
vt 0.062500 0.500000
vt 0.296822 0.485388
vt 0.250000 0.490000
vt 0.203178 0.485388
vt 0.158156 0.471731
vt 0.116663 0.449553
vt 0.080294 0.419706
vt 0.050447 0.383337
vt 0.028269 0.341844
vt 0.014612 0.296822
vt 0.010000 0.250000
vt 0.014612 0.203178
vt 0.028269 0.158156
vt 0.050447 0.116663
vt 0.080294 0.080294
vt 0.116663 0.050447
vt 0.158156 0.028269
vt 0.203178 0.014612
vt 0.250000 0.010000
vt 0.296822 0.014612
vt 0.341844 0.028269
vt 0.383337 0.050447
vt 0.419706 0.080294
vt 0.449553 0.116663
vt 0.471731 0.158156
vt 0.485388 0.203178
vt 0.490000 0.250000
vt 0.485388 0.296822
vt 0.471731 0.341844
vt 0.449553 0.383337
vt 0.419706 0.419706
vt 0.383337 0.449553
vt 0.341844 0.471731
vt 0.031250 1.000000
vt 0.031250 0.500000
vt 0.000000 1.000000
vt 0.000000 0.500000
vt 0.750000 0.490000
vt 0.796822 0.485388
vt 0.841844 0.471731
vt 0.883337 0.449553
vt 0.919706 0.419706
vt 0.949553 0.383337
vt 0.971731 0.341844
vt 0.985388 0.296822
vt 0.990000 0.250000
vt 0.985388 0.203178
vt 0.971731 0.158156
vt 0.949553 0.116663
vt 0.919706 0.080294
vt 0.883337 0.050447
vt 0.841844 0.028269
vt 0.796822 0.014612
vt 0.750000 0.010000
vt 0.703178 0.014612
vt 0.658156 0.028269
vt 0.616663 0.050447
vt 0.580294 0.080294
vt 0.550447 0.116663
vt 0.528269 0.158156
vt 0.514612 0.203178
vt 0.510000 0.250000
vt 0.514612 0.296822
vt 0.528269 0.341844
vt 0.550447 0.383337
vt 0.580294 0.419706
vt 0.616663 0.449553
vt 0.658156 0.471731
vt 0.703178 0.485388
s 0
usemtl Material.005
f 75/141/37 76/142/37 78/143/37 77/144/37
f 77/144/38 78/143/38 80/145/38 79/146/38
f 79/146/39 80/145/39 82/147/39 81/148/39
f 81/148/40 82/147/40 84/149/40 83/150/40
f 83/150/41 84/149/41 86/151/41 85/152/41
f 85/152/42 86/151/42 88/153/42 87/154/42
f 87/154/43 88/153/43 90/155/43 89/156/43
f 89/156/44 90/155/44 92/157/44 91/158/44
f 91/158/45 92/157/45 94/159/45 93/160/45
f 93/160/46 94/159/46 96/161/46 95/162/46
f 95/162/47 96/161/47 98/163/47 97/164/47
f 97/164/48 98/163/48 100/165/48 99/166/48
f 99/166/49 100/165/49 102/167/49 101/168/49
f 101/168/50 102/167/50 104/169/50 103/170/50
f 103/170/51 104/169/51 106/171/51 105/172/51
f 105/172/52 106/171/52 108/173/52 107/174/52
f 107/174/53 108/173/53 110/175/53 109/176/53
f 109/176/54 110/175/54 112/177/54 111/178/54
f 111/178/55 112/177/55 114/179/55 113/180/55
f 113/180/56 114/179/56 116/181/56 115/182/56
f 115/182/57 116/181/57 118/183/57 117/184/57
f 117/184/58 118/183/58 120/185/58 119/186/58
f 119/186/59 120/185/59 122/187/59 121/188/59
f 121/188/60 122/187/60 124/189/60 123/190/60
f 123/190/61 124/189/61 126/191/61 125/192/61
f 125/192/62 126/191/62 128/193/62 127/194/62
f 127/194/63 128/193/63 130/195/63 129/196/63
f 129/196/64 130/195/64 132/197/64 131/198/64
f 131/198/65 132/197/65 134/199/65 133/200/65
f 133/200/66 134/199/66 136/201/66 135/202/66
f 78/203/67 76/204/67 138/205/67 136/206/67 134/207/67 132/208/67 130/209/67 128/210/67 126/211/67 124/212/67 122/213/67 120/214/67 118/215/67 116/216/67 114/217/67 112/218/67 110/219/67 108/220/67 106/221/67 104/222/67 102/223/67 100/224/67 98/225/67 96/226/67 94/227/67 92/228/67 90/229/67 88/230/67 86/231/67 84/232/67 82/233/67 80/234/67
f 135/202/68 136/201/68 138/235/68 137/236/68
f 137/236/69 138/235/69 76/237/69 75/238/69
f 75/239/70 77/240/70 79/241/70 81/242/70 83/243/70 85/244/70 87/245/70 89/246/70 91/247/70 93/248/70 95/249/70 97/250/70 99/251/70 101/252/70 103/253/70 105/254/70 107/255/70 109/256/70 111/257/70 113/258/70 115/259/70 117/260/70 119/261/70 121/262/70 123/263/70 125/264/70 127/265/70 129/266/70 131/267/70 133/268/70 135/269/70 137/270/70
f 143/150/71 144/149/71 146/151/71 145/152/71
f 145/152/72 146/151/72 148/153/72 147/154/72
f 147/154/43 148/153/43 150/155/43 149/156/43
f 149/156/44 150/155/44 152/157/44 151/158/44
f 151/158/45 152/157/45 154/159/45 153/160/45
f 153/160/46 154/159/46 156/161/46 155/162/46
f 139/239/70 140/240/70 141/241/70 142/242/70 143/243/70 145/244/70 147/245/70 149/246/70 151/247/70 153/248/70 155/249/70 157/250/70 158/251/70 159/252/70 160/253/70 161/254/70 162/255/70 163/256/70 164/257/70 165/258/70 166/259/70 167/260/70 168/261/70 169/262/70 170/263/70 171/264/70 172/265/70 173/266/70 174/267/70 175/268/70 176/269/70 177/270/70
o Plane
v 4.145526 0.000000 -2.731312
v -2.731312 0.000000 4.145526
v 2.731312 0.000000 -4.145526
v -4.145526 0.000000 2.731312
vn -0.0000 1.0000 -0.0000
vt 0.000000 0.000000
vt 1.000000 0.000000
vt 1.000000 1.000000
vt 0.000000 1.000000
s 0
usemtl Material.006
f 178/271/73 180/274/73 181/273/73 179/272/73
